<?xml version="1.0" encoding="UTF-8" standalone="no"?>
<!-- Created with Inkscape (http://www.inkscape.org/) -->

<svg
   width="48"
   height="48"
   viewBox="0 0 48 48"
   version="1.1"
   id="svg5"
   xml:space="preserve"
   inkscape:version="1.2.1 (9c6d41e410, 2022-07-14)"
   sodipodi:docname="favicon.svg"
   xmlns:inkscape="http://www.inkscape.org/namespaces/inkscape"
   xmlns:sodipodi="http://sodipodi.sourceforge.net/DTD/sodipodi-0.dtd"
   xmlns="http://www.w3.org/2000/svg"
   xmlns:svg="http://www.w3.org/2000/svg"><sodipodi:namedview
     id="namedview7"
     pagecolor="#ffffff"
     bordercolor="#000000"
     borderopacity="0.25"
     inkscape:showpageshadow="2"
     inkscape:pageopacity="0.0"
     inkscape:pagecheckerboard="0"
     inkscape:deskcolor="#d1d1d1"
     inkscape:document-units="px"
     showgrid="false"
     inkscape:zoom="6.2387442"
     inkscape:cx="15.948722"
     inkscape:cy="28.210806"
     inkscape:window-width="1920"
     inkscape:window-height="1027"
     inkscape:window-x="3832"
     inkscape:window-y="-8"
     inkscape:window-maximized="1"
     inkscape:current-layer="layer2" /><defs
     id="defs2" /><g
     inkscape:label="Layer 1"
     inkscape:groupmode="layer"
     id="layer1"><g
       id="g154"
       transform="matrix(0.17845407,0,0,0.17845407,1.1609408,1.1660879)"><path
         fill="#000000"
         d="m 25.4,186.6 c 1.7,-0.5 34.3,-11.2 34.3,-11.2 0,0 -3.1,-9.9 -3.5,-11.8 -0.5,-2.2 -1.3,-2.2 -1.9,-2.3 H 54.1 L 20.5,161 c 0,0 3.8,19.2 4.9,25.6 z"
         id="path134" /><path
         fill="#000000"
         d="m 105,175.1 c 0,0 -76.5,31.7 -78.4,32.3 -0.8,4.9 -4.4,20.3 -4.4,20.3 h 32.6 c 0,0 2.8,0 3.3,-2.1 2.2,-8.9 3.6,-17 3.8,-17.3 0.2,-0.8 0.7,-2 2.1,-2.7 0.7,-0.4 56.2,-28.5 56.2,-28.5 0,0 0,-5.6 0,-9.5 H 105 Z"
         id="path136" /><path
         fill="#000000"
         d="m 42.5,101.9 c 0,-3.4 0,-5.8 0,-7.3 C 37.1,92 20,83.2 16.3,81.4 c 0,3.4 0,7.2 0,7.2 v 0 c 0,0.1 0,0.2 0,0.3 0,1.2 0.3,3.7 1.6,4.4 1.9,1.1 20.7,11.1 24.7,13.2 0,-0.7 0,-1.4 0,-2.1 0,0 0,-0.1 0,-0.1 -0.1,-0.8 -0.1,-1.6 -0.1,-2.4 z"
         id="path138" /><path
         fill="#000000"
         d="m 245.9,101.4 c -0.1,-0.3 -0.5,-0.6 -1.1,-0.9 -2.7,-0.1 -15.1,-0.7 -28.4,-1.3 -0.6,10.3 -1.5,27.9 -1.8,29.1 -0.1,0.7 -1.7,3.8 -3.9,7.8 0.6,0.4 1.1,0.7 1.4,0.9 1.3,0.7 3.7,1.1 4.8,-0.1 0.7,-0.8 4.7,-5.6 9.3,-11.1 6.6,-7.9 14,-16.7 15.8,-18.7 l 1.3,-1.5 c 1.8,-2 2.5,-2.8 2.5,-3.7 0.2,-0.2 0.2,-0.3 0.1,-0.5 z"
         id="path140" /><path
         fill="#000000"
         d="m 98.2,146.1 c -3.3,5.2 -7.8,8.1 -12.6,8.1 -2.3,0 -4.5,-0.7 -6.5,-1.9 0,3.3 0,6.3 0,7.3 3,0 38,0 41,0 0,-0.8 0,-2.7 0,-5 -6.1,-3.1 -13.4,-6.8 -20.8,-10.6 -0.3,0.7 -0.7,1.4 -1.1,2.1 z"
         id="path142" /><path
         fill="#000000"
         d="m 95.3,144.3 c 0.4,-0.6 0.7,-1.2 1,-1.8 -8.5,-4.3 -17.2,-8.7 -24.7,-12.6 0.7,11.7 6.7,20.9 14,20.9 3.6,0 7.1,-2.3 9.7,-6.5 z"
         id="path144" /><path
         fill="#000000"
         d="m 128.9,137.3 -0.6,-0.4 c -1.3,-0.6 -50.8,-25 -82.4,-40.6 0,1.4 0,3.2 0,5.6 0,0.8 0,1.6 0,2.6 0,0 0,0.1 0,0.1 0,9.1 3,10.3 4.6,10.9 2.1,0.9 69.7,35.3 79.9,40.6 0,-0.2 0,-0.5 0,-0.8 l 0.5,-17.1 c -0.8,-0.3 -1.5,-0.7 -2,-0.9 z"
         id="path146" /><path
         fill="#000000"
         d="m 138.4,129.3 c 3.7,-4.8 20.9,-24.7 21.8,-25.7 0.5,-0.7 8.1,-10.2 21.2,-9.5 9.2,0.5 39.8,2 55.2,2.7 -2.1,-0.9 -3.9,-1.7 -3.9,-1.7 L 210.1,85 l -7,-3.1 -13.6,-6 c -7.9,-3.5 -16.1,-7.2 -24.2,-10.7 l -14.7,-6.6 c -7.1,-3.2 -14.3,-6.4 -21.6,-9.5 -3.3,-1.3 -14.8,-6.6 -17.9,-8 -6.5,-2.9 -13.2,-5.9 -20.2,-8.1 -1.8,-0.6 -10,-2.1 -12,-2.3 l -19.6,-1 C 47.9,29.1 35,28.5 32.1,28.3 c -8.8,-0.6 -13,0 -14.5,4.8 -0.8,2.7 -5,24.3 -6.5,30.1 -0.4,1.4 -0.6,2.6 -0.6,3.5 0,3.3 2,4.2 4.3,5.3 l 1,0.5 c 0.9,0.5 114.2,56.2 116.5,57.2 0,0 0,0 0,0 v 0 0 l 0.9,0.5 c 1.6,0.9 2.8,1.5 5.2,-0.9 z"
         id="path148" /><path
         fill="#000000"
         d="m 181.2,97.4 c -11.4,-0.6 -18.3,8.1 -18.4,8.2 v 0 c -0.2,0.2 -21,25.3 -24.5,29.8 v 0.1 l -0.1,0.1 c -1.4,1.5 -2.8,2.2 -4,2.6 -0.1,6.4 -0.4,17 -0.4,17 0,0.1 0,0.2 0,0.2 0,2.3 0.9,3.7 5.4,4 2.6,0.2 44.7,1.4 47.9,1.4 2.6,0 4.7,-0.3 7,-3 2.7,-3.2 16.6,-28.2 17.5,-30.4 0.2,-1.4 1,-16.1 1.7,-28.6 -13.3,-0.5 -26.5,-1.1 -32.1,-1.4 z m 12.4,21.1 c -1.1,3.3 -5.8,19.6 -5.8,19.6 0,0 -0.6,2.9 -2.1,3.8 -1.4,1 -4.2,0.7 -4.2,0.7 -2.7,-0.1 -5.5,-0.2 -8.2,-0.3 -4.5,-0.1 -15.4,-0.6 -16.4,-0.6 -1,0 -3.1,-0.5 -3.5,-1.6 -0.6,-1.4 0,-3.2 0.4,-4.6 0.5,-1.9 1.1,-3.8 1.7,-5.7 1.1,-4 2.3,-7.9 3.5,-11.9 0.6,-2 0.7,-3.9 2.5,-5.4 1.8,-1.5 4.1,-1.3 6.3,-1.3 2.1,0 4.3,0.1 6.4,0.1 4.5,0.1 8.9,0.4 13.4,0.6 1.3,0.1 2.7,0.1 4,0.2 3.5,0.3 3.1,3 2,6.4 z"
         id="path150" /><path
         fill="#000000"
         d="m 79.1,167.5 c 0,3.4 0,5.3 0,5.3 l -58.2,20 -0.3,-1.8 C 18.7,180.3 15.8,163.3 15.3,161 H 10 c 0,8.2 0,59.4 0,66.8 h 6.4 c 0.7,-4.4 4.4,-20.7 4.5,-21 l 0.2,-1 c 0,0 78.4,-32.3 80.7,-33.1 0,-1.5 0,-2.2 0,-5.2 z"
         id="path152" /></g></g><g
     inkscape:groupmode="layer"
     id="layer2"
     inkscape:label="Layer 2"
     style="stroke-width:0.009;stroke-dasharray:none"><path
       sodipodi:type="star"
       style="fill:#f1c313;stroke:#613939;stroke-width:0.009;stroke-dasharray:none;paint-order:stroke markers fill"
       id="path1090"
       inkscape:flatsided="false"
       sodipodi:sides="4"
       sodipodi:cx="31.962219"
       sodipodi:cy="23.914993"
       sodipodi:r1="18.02446"
       sodipodi:r2="2.4873755"
       sodipodi:arg1="0.9461609"
       sodipodi:arg2="0.69354787"
       inkscape:rounded="0.02"
       inkscape:randomized="3.0357661e-17"
       d="m 42.502952,38.536009 c 0.02872,0.311246 -8.319447,-12.980873 -8.627984,-13.030913 -0.371171,-0.0602 -16.159334,8.916083 -16.533765,8.95063 -0.311246,0.02872 12.980873,-8.319447 13.030913,-8.627984 0.0602,-0.371171 -8.916082,-16.1593343 -8.950629,-16.5337647 -0.02872,-0.311246 8.319447,12.9808727 8.627983,13.0309127 0.371171,0.0602 16.159335,-8.916082 16.533765,-8.950629 0.311246,-0.02872 -12.980873,8.319447 -13.030913,8.627983 -0.0602,0.371171 8.916083,16.159335 8.95063,16.533765 z" /></g></svg>
